<svg xmlns="http://www.w3.org/2000/svg" viewBox="80.12812500000001 11 429.74375 122"  preserveAspectRatio="xMidYMid"><defs><linearGradient id="editing-glowing-gradient" x1="0.8146601955249185" x2="0.18533980447508147" y1="0.8885729807284856" y2="0.11142701927151444"><stop offset="0" stop-color="#d34c31"></stop><stop offset="1" stop-color="#e88432"></stop></linearGradient><filter id="editing-glowing" x="-100%" y="-100%" width="300%" height="300%"><feGaussianBlur in="SourceGraphic" result="blur" stdDeviation="10"></feGaussianBlur><feMerge><feMergeNode in="blur"></feMergeNode><feMergeNode in="SourceGraphic"></feMergeNode></feMerge></filter></defs><g filter="url(#editing-glowing)"><g transform="translate(84.42997741699219, 97.85000038146973)"><path d="M43.97-44.29L50.18-44.29L50.18 0L44.35 0L44.35-33.02L29.63 0L25.54 0L10.75-32.96L10.75 0L4.93 0L4.93-44.29L11.20-44.29L27.58-7.68L43.97-44.29ZM92.03-19.01L92.03-19.01Q92.03-17.41 91.84-15.55L91.84-15.55L63.81-15.55L63.81-15.55Q64.06-10.37 67.30-7.36L67.30-7.36L67.30-7.36Q70.53-4.35 75.20-4.35L75.20-4.35L75.20-4.35Q78.98-4.35 81.50-6.11L81.50-6.11L81.50-6.11Q84.03-7.87 85.06-10.82L85.06-10.82L91.33-10.82L91.33-10.82Q89.92-5.76 85.70-2.59L85.70-2.59L85.70-2.59Q81.47 0.58 75.20 0.58L75.20 0.58L75.20 0.58Q70.21 0.58 66.27-1.66L66.27-1.66L66.27-1.66Q62.34-3.90 60.10-8.03L60.10-8.03L60.10-8.03Q57.86-12.16 57.86-17.60L57.86-17.60L57.86-17.60Q57.86-23.04 60.03-27.14L60.03-27.14L60.03-27.14Q62.21-31.23 66.14-33.44L66.14-33.44L66.14-33.44Q70.08-35.65 75.20-35.65L75.20-35.65L75.20-35.65Q80.19-35.65 84-33.47L84-33.47L84-33.47Q87.81-31.30 89.92-27.52L89.92-27.52L89.92-27.52Q92.03-23.74 92.03-19.01L92.03-19.01ZM86.02-19.78L86.02-19.78Q86.02-23.23 84.54-25.70L84.54-25.70L84.54-25.70Q83.07-28.16 80.54-29.44L80.54-29.44L80.54-29.44Q78.02-30.72 74.94-30.72L74.94-30.72L74.94-30.72Q70.46-30.72 67.33-27.81L67.33-27.81L67.33-27.81Q64.19-24.90 63.87-19.78L63.87-19.78L86.02-19.78ZM141.89-35.71L141.89-35.71Q145.98-35.71 149.18-34.02L149.18-34.02L149.18-34.02Q152.38-32.32 154.24-28.93L154.24-28.93L154.24-28.93Q156.10-25.54 156.10-20.67L156.10-20.67L156.10 0L150.34 0L150.34-19.84L150.34-19.84Q150.34-25.09 147.74-27.87L147.74-27.87L147.74-27.87Q145.15-30.66 140.74-30.66L140.74-30.66L140.74-30.66Q136.19-30.66 133.50-27.74L133.50-27.74L133.50-27.74Q130.82-24.83 130.82-19.33L130.82-19.33L130.82 0L125.06 0L125.06-19.84L125.06-19.84Q125.06-25.09 122.46-27.87L122.46-27.87L122.46-27.87Q119.87-30.66 115.46-30.66L115.46-30.66L115.46-30.66Q110.91-30.66 108.22-27.74L108.22-27.74L108.22-27.74Q105.54-24.83 105.54-19.33L105.54-19.33L105.54 0L99.71 0L99.71-35.07L105.54-35.07L105.54-30.02L105.54-30.02Q107.26-32.77 110.18-34.24L110.18-34.24L110.18-34.24Q113.09-35.71 116.61-35.71L116.61-35.71L116.61-35.71Q121.02-35.71 124.42-33.73L124.42-33.73L124.42-33.73Q127.81-31.74 129.47-27.90L129.47-27.90L129.47-27.90Q130.94-31.62 134.34-33.66L134.34-33.66L134.34-33.66Q137.73-35.71 141.89-35.71L141.89-35.71ZM197.63-19.01L197.63-19.01Q197.63-17.41 197.44-15.55L197.44-15.55L169.41-15.55L169.41-15.55Q169.66-10.37 172.90-7.36L172.90-7.36L172.90-7.36Q176.13-4.35 180.80-4.35L180.80-4.35L180.80-4.35Q184.58-4.35 187.10-6.11L187.10-6.11L187.10-6.11Q189.63-7.87 190.66-10.82L190.66-10.82L196.93-10.82L196.93-10.82Q195.52-5.76 191.30-2.59L191.30-2.59L191.30-2.59Q187.07 0.58 180.80 0.58L180.80 0.58L180.80 0.58Q175.81 0.58 171.87-1.66L171.87-1.66L171.87-1.66Q167.94-3.90 165.70-8.03L165.70-8.03L165.70-8.03Q163.46-12.16 163.46-17.60L163.46-17.60L163.46-17.60Q163.46-23.04 165.63-27.14L165.63-27.14L165.63-27.14Q167.81-31.23 171.74-33.44L171.74-33.44L171.74-33.44Q175.68-35.65 180.80-35.65L180.80-35.65L180.80-35.65Q185.79-35.65 189.60-33.47L189.60-33.47L189.60-33.47Q193.41-31.30 195.52-27.52L195.52-27.52L195.52-27.52Q197.63-23.74 197.63-19.01L197.63-19.01ZM191.62-19.78L191.62-19.78Q191.62-23.23 190.14-25.70L190.14-25.70L190.14-25.70Q188.67-28.16 186.14-29.44L186.14-29.44L186.14-29.44Q183.62-30.72 180.54-30.72L180.54-30.72L180.54-30.72Q176.06-30.72 172.93-27.81L172.93-27.81L172.93-27.81Q169.79-24.90 169.47-19.78L169.47-19.78L191.62-19.78ZM203.14-22.34L203.14-22.34Q203.14-28.86 206.11-34.08L206.11-34.08L206.11-34.08Q209.09-39.30 214.21-42.21L214.21-42.21L214.21-42.21Q219.33-45.12 225.54-45.12L225.54-45.12L225.54-45.12Q232.64-45.12 238.11-41.60L238.11-41.60L238.11-41.60Q243.58-38.08 246.08-31.68L246.08-31.68L239.10-31.68L239.10-31.68Q237.25-35.58 233.73-37.73L233.73-37.73L233.73-37.73Q230.21-39.87 225.54-39.87L225.54-39.87L225.54-39.87Q220.86-39.87 217.12-37.73L217.12-37.73L217.12-37.73Q213.38-35.58 211.23-31.58L211.23-31.58L211.23-31.58Q209.09-27.58 209.09-22.34L209.09-22.34L209.09-22.34Q209.09-17.09 211.23-13.12L211.23-13.12L211.23-13.12Q213.38-9.15 217.12-7.01L217.12-7.01L217.12-7.01Q220.86-4.86 225.54-4.86L225.54-4.86L225.54-4.86Q232.13-4.86 236.35-8.80L236.35-8.80L236.35-8.80Q240.58-12.74 241.22-19.46L241.22-19.46L223.42-19.46L223.42-24.06L247.42-24.06L247.42-19.58L247.42-19.58Q246.91-14.08 243.97-9.50L243.97-9.50L243.97-9.50Q241.02-4.93 236.22-2.27L236.22-2.27L236.22-2.27Q231.42 0.38 225.54 0.38L225.54 0.38L225.54 0.38Q219.33 0.38 214.21-2.53L214.21-2.53L214.21-2.53Q209.09-5.44 206.11-10.62L206.11-10.62L206.11-10.62Q203.14-15.81 203.14-22.34L203.14-22.34ZM287.10-19.01L287.10-19.01Q287.10-17.41 286.91-15.55L286.91-15.55L258.88-15.55L258.88-15.55Q259.14-10.37 262.37-7.36L262.37-7.36L262.37-7.36Q265.60-4.35 270.27-4.35L270.27-4.35L270.27-4.35Q274.05-4.35 276.58-6.11L276.58-6.11L276.58-6.11Q279.10-7.87 280.13-10.82L280.13-10.82L286.40-10.82L286.40-10.82Q284.99-5.76 280.77-2.59L280.77-2.59L280.77-2.59Q276.54 0.58 270.27 0.58L270.27 0.58L270.27 0.58Q265.28 0.58 261.34-1.66L261.34-1.66L261.34-1.66Q257.41-3.90 255.17-8.03L255.17-8.03L255.17-8.03Q252.93-12.16 252.93-17.60L252.93-17.60L252.93-17.60Q252.93-23.04 255.10-27.14L255.10-27.14L255.10-27.14Q257.28-31.23 261.22-33.44L261.22-33.44L261.22-33.44Q265.15-35.65 270.27-35.65L270.27-35.65L270.27-35.65Q275.26-35.65 279.07-33.47L279.07-33.47L279.07-33.47Q282.88-31.30 284.99-27.52L284.99-27.52L284.99-27.52Q287.10-23.74 287.10-19.01L287.10-19.01ZM281.09-19.78L281.09-19.78Q281.09-23.23 279.62-25.70L279.62-25.70L279.62-25.70Q278.14-28.16 275.62-29.44L275.62-29.44L275.62-29.44Q273.09-30.72 270.02-30.72L270.02-30.72L270.02-30.72Q265.54-30.72 262.40-27.81L262.40-27.81L262.40-27.81Q259.26-24.90 258.94-19.78L258.94-19.78L281.09-19.78ZM311.87-35.71L311.87-35.71Q318.27-35.71 322.24-31.84L322.24-31.84L322.24-31.84Q326.21-27.97 326.21-20.67L326.21-20.67L326.21 0L320.45 0L320.45-19.84L320.45-19.84Q320.45-25.09 317.82-27.87L317.82-27.87L317.82-27.87Q315.20-30.66 310.66-30.66L310.66-30.66L310.66-30.66Q306.05-30.66 303.33-27.78L303.33-27.78L303.33-27.78Q300.61-24.90 300.61-19.39L300.61-19.39L300.61 0L294.78 0L294.78-35.07L300.61-35.07L300.61-30.08L300.61-30.08Q302.34-32.77 305.31-34.24L305.31-34.24L305.31-34.24Q308.29-35.71 311.87-35.71L311.87-35.71Z" fill="url(#editing-glowing-gradient)"></path></g></g><style>text {
}</style></svg>